# xmcd CD database file
#
# Track frame offsets:
#	150
#	17183
#	34825
#	56711
#	59750
#	85139
#	87413
#	119599
#	143395
#	170980
#	173354
#	190510
#	213309
#	237596
#	255577
#	270192
#
# Disc length: 3971 seconds
#
# Revision: 0
# Processed by: cddbd v1.5.2PL0 Copyright (c) Steve Scherf et al.
# Submitted via: CDex 1.51
#
DISCID=dd0f8110
DTITLE=Pura Fe - A Blues Night In North Carolina Disc 2
DYEAR=2011
DGENRE=Blues
TTITLE0=Scalp Dance
TTITLE1=Alligator Dance
TTITLE2=Moccasin Dance
TTITLE3=Smoke Dancing
TTITLE4=Hard Time Killing Floor
TTITLE5=Farko In The House
TTITLE6=Rise Up Tuscarora Nation
TTITLE7=Hold The Rain
TTITLE8=Stand Up for Human Pride
TTITLE9=Mahk Jchi Intro
TTITLE10=Mahk Jchi
TTITLE11=Endless Possibilities
TTITLE12=Summertime
TTITLE13=Great Grampah's Banjo
TTITLE14=Grammah Easters Lullaby
TTITLE15=Intro By Tim Duffy And Dr. William Ferris
EXTD=YEAR: 2011
EXTT0=
EXTT1=
EXTT2=
EXTT3=
EXTT4=
EXTT5=
EXTT6=
EXTT7=
EXTT8=
EXTT9=
EXTT10=
EXTT11=
EXTT12=
EXTT13=
EXTT14=
EXTT15=
PLAYORDER=
